# xmcd
# 
# Track frame offsets:
#     150
#     19080
#     35995
#     54968
#     70915
# 
# Disc length: 1189
# 
# Revision: 2
# Processed by: cddbd v1.5.2PL0 Copyright (c) Steve Scherf et al.
# Submitted via: fre:ac v1.1beta1pre2
# 
DISCID=3f04a305
DTITLE=Heesay With Dudes - Unreleased Songs
DYEAR=0
DGENRE=Heavy Metal
TTITLE0=ROLLER COASTER
TTITLE1=SHAKE OUR SOULS
TTITLE2=LONELY RUNNER
TTITLE3=50/50
TTITLE4=BRANDNEW SEASON
EXTD=
EXTT0=
EXTT1=
EXTT2=
EXTT3=
EXTT4=
PLAYORDER=
